<svg xmlns="http://www.w3.org/2000/svg" viewBox="0 0 224.54 23.93"><defs><style>.cls-1{fill:#fff;}</style></defs><title>アセット 2</title><g id="レイヤー_2" data-name="レイヤー 2"><g id="レイヤー_1-2" data-name="レイヤー 1"><path class="cls-1" d="M12,0h-.8A1.2,1.2,0,0,0,10,1.2V6.45H3.2V1.2A1.2,1.2,0,0,0,2,0H1.2A1.2,1.2,0,0,0,0,1.2V14.9a1.2,1.2,0,0,0,1.2,1.2H2a1.2,1.2,0,0,0,1.2-1.2V9.65H10V14.9a1.2,1.2,0,0,0,1.2,1.2H12a1.2,1.2,0,0,0,1.2-1.2V1.2A1.2,1.2,0,0,0,12,0Z"/><path class="cls-1" d="M43.26,16.08c-3.6-.09-6.43-2.56-6.43-6.16V1.35A1.34,1.34,0,0,1,38.17,0h.51A1.34,1.34,0,0,1,40,1.35V10c0,1.84,1.42,2.85,3.26,2.92S46.81,12,46.81,10V1.35A1.34,1.34,0,0,1,48.15,0h.51A1.34,1.34,0,0,1,50,1.35V10C50,13.73,47,16.17,43.26,16.08Z"/><path class="cls-1" d="M123.91,1.45A6.58,6.58,0,0,0,116.39,1a1.2,1.2,0,0,0-1.18-1h-.8a1.2,1.2,0,0,0-1.2,1.2V14.9a1.2,1.2,0,0,0,1.2,1.2h.8a1.2,1.2,0,0,0,1.2-1.2V6.08a3.39,3.39,0,0,1,3.39-3.39c.74,0,1.42.76,2,1.16a1.29,1.29,0,0,0,1.48,0l.57-.39A1.27,1.27,0,0,0,123.91,1.45Z"/><path class="cls-1" d="M86.65,1.45A6.58,6.58,0,0,0,79.13,1,1.2,1.2,0,0,0,78,0h-.8A1.2,1.2,0,0,0,76,1.2V14.9a1.2,1.2,0,0,0,1.2,1.2H78a1.2,1.2,0,0,0,1.2-1.2V6.08a3.39,3.39,0,0,1,3.39-3.39c.74,0,1.42.76,2,1.16a1.29,1.29,0,0,0,1.48,0l.57-.39A1.27,1.27,0,0,0,86.65,1.45Z"/><path class="cls-1" d="M197.49.92l-.72-.34a1.2,1.2,0,0,0-1.6.58l-4.81,10.32L186.61,1.17A1.2,1.2,0,0,0,185,.59l-.72.34a1.2,1.2,0,0,0-.58,1.6l5.41,11.61-3.62,7.75a1.2,1.2,0,0,0,.58,1.6l.72.34a1.2,1.2,0,0,0,1.6-.58l9.66-20.72A1.2,1.2,0,0,0,197.49.92Z"/><rect class="cls-1" x="221.34" y="12.9" width="3.2" height="3.19" rx="1.2" ry="1.2"/><rect class="cls-1" x="221.34" width="3.2" height="11.5" rx="1.2" ry="1.2"/><path class="cls-1" d="M154.5,0h-.74a13.61,13.61,0,0,0-5,.74,1.16,1.16,0,0,0-.35,1.86l.42.43a1.47,1.47,0,0,0,1.64.33,6.55,6.55,0,0,1,2.78-.64c2.66,0,3.27,1.37,3.27,2.48V6.33l-1.91-.85a6,6,0,0,0-5.65.23,5.23,5.23,0,0,0-2.26,4.59v.18A5.48,5.48,0,0,0,149,15.21a5.34,5.34,0,0,0,2.92.84,6.59,6.59,0,0,0,2.67-.58l1.88-.84v.27a1.2,1.2,0,0,0,1.2,1.2h.8a1.2,1.2,0,0,0,1.2-1.2V5.2A5.2,5.2,0,0,0,154.5,0Zm1.06,11.54-2.24,1a2.78,2.78,0,0,1-2.55,0,2.5,2.5,0,0,1-.89-2.16V10.2a2.06,2.06,0,0,1,.8-1.81,2.84,2.84,0,0,1,2.61,0l2.25,1c.6.27,1,.68,1,1.09S156.14,11.28,155.56,11.54Z"/></g></g></svg>